<svg width="323" height="315" viewBox="0 0 323 315" fill="none" xmlns="http://www.w3.org/2000/svg">
<path d="M11.3206 199V123.835H40.5258C51.0807 123.835 58.2539 126.089 62.0454 130.598C65.4271 134.39 67.1179 138.745 67.1179 143.664C67.1179 149.607 65.2734 154.014 61.5843 156.883C60.3546 157.805 58.5101 158.83 56.0507 159.957C60.7645 160.982 64.4536 163.083 67.1179 166.259C69.8848 169.436 71.2682 173.381 71.2682 178.095C71.2682 184.039 69.1162 189.009 64.8123 193.005C60.6108 197.002 53.745 199 44.2149 199H11.3206ZM24.0786 155.038H40.0647C49.2874 155.038 53.8987 151.913 53.8987 145.662C53.8987 142.075 52.7715 139.514 50.5171 137.976C48.3651 136.337 44.9322 135.517 40.2184 135.517H24.0786V155.038ZM24.0786 187.318H43.9075C48.8262 187.318 52.4641 186.549 54.821 185.012C57.1779 183.373 58.3564 180.606 58.3564 176.712C58.3564 170.051 53.0277 166.721 42.3703 166.721H24.0786V187.318ZM121.92 133.519C114.439 133.519 108.137 136.183 103.014 141.512C97.8898 146.84 95.328 153.296 95.328 160.879C95.328 168.463 97.8898 174.918 103.014 180.247C108.137 185.473 114.439 188.086 121.92 188.086C129.401 188.086 135.703 185.473 140.827 180.247C145.95 174.918 148.512 168.463 148.512 160.879C148.512 153.296 145.95 146.84 140.827 141.512C135.703 136.183 129.401 133.519 121.92 133.519ZM121.92 199.769C110.648 199.769 101.22 196.079 93.6371 188.701C86.054 181.221 82.2625 171.947 82.2625 160.879C82.2625 149.812 86.054 140.59 93.6371 133.211C101.22 125.731 110.648 121.99 121.92 121.99C133.192 121.99 142.62 125.731 150.203 133.211C157.786 140.59 161.578 149.812 161.578 160.879C161.578 171.947 157.735 181.169 150.049 188.548C142.364 196.028 132.987 199.769 121.92 199.769ZM212.341 133.519C204.861 133.519 198.559 136.183 193.435 141.512C188.311 146.84 185.749 153.296 185.749 160.879C185.749 168.463 188.311 174.918 193.435 180.247C198.559 185.473 204.861 188.086 212.341 188.086C219.822 188.086 226.124 185.473 231.248 180.247C236.372 174.918 238.933 168.463 238.933 160.879C238.933 153.296 236.372 146.84 231.248 141.512C226.124 136.183 219.822 133.519 212.341 133.519ZM212.341 199.769C201.069 199.769 191.641 196.079 184.058 188.701C176.475 181.221 172.684 171.947 172.684 160.879C172.684 149.812 176.475 140.59 184.058 133.211C191.641 125.731 201.069 121.99 212.341 121.99C223.614 121.99 233.041 125.731 240.624 133.211C248.207 140.59 251.999 149.812 251.999 160.879C251.999 171.947 248.156 181.169 240.471 188.548C232.785 196.028 223.409 199.769 212.341 199.769ZM296.46 135.363V199H283.702V135.363H260.953V123.835H319.21V135.363H296.46Z" fill="white"/>
<line x1="17.269" y1="187.866" x2="17.269" y2="108.843" stroke="white" stroke-width="11.928"/>
<path d="M17.2688 86.4781L4.35632 108.843H30.1813L17.2688 86.4781ZM19.5053 153.573L19.5053 120.026H15.0323L15.0323 153.573H19.5053ZM19.5053 120.026V106.607H15.0323L15.0323 120.026H19.5053Z" fill="white"/>
</svg>
